<svg width="16" height="13" viewBox="0 0 5 3" fill="none" xmlns="http://www.w3.org/2000/svg">
<path d="M4.74985 6.93387e-07L0.249721 2.99973e-07C0.20416 0.000114737 0.1595 0.0101855 0.120549 0.0291279C0.0815976 0.0480705 0.0498302 0.0751675 0.0286663 0.107503C0.00750233 0.139838 -0.0022571 0.176187 0.000438457 0.212636C0.00313449 0.249086 0.0181835 0.284256 0.0439656 0.314361L2.29403 2.91901C2.38728 3.027 2.61179 3.027 2.70529 2.91901L4.95536 0.314361C4.9814 0.284319 4.99667 0.249131 4.99952 0.212621C5.00236 0.176111 4.99266 0.139674 4.97148 0.107271C4.95029 0.074867 4.91844 0.0477352 4.87936 0.0288234C4.84029 0.00991152 4.7955 -5.67615e-05 4.74985 6.93387e-07Z" fill="#BDBDBD"/>
</svg>
