<svg width="16" height="13" viewBox="0 0 5 3" fill="none" xmlns="http://www.w3.org/2000/svg">
<path d="M0.250151 3L4.75028 3C4.79584 2.99988 4.8405 2.98981 4.87945 2.97087C4.9184 2.95193 4.95017 2.92483 4.97133 2.8925C4.9925 2.86016 5.00226 2.82381 4.99956 2.78736C4.99687 2.75091 4.98182 2.71574 4.95603 2.68564L2.70597 0.0809944C2.61272 -0.0269981 2.38821 -0.0269981 2.29471 0.0809944L0.0446447 2.68564C0.0186002 2.71568 0.00332707 2.75087 0.000484745 2.78738C-0.00235758 2.82389 0.00733961 2.86033 0.0285227 2.89273C0.0497059 2.92513 0.0815647 2.95226 0.120638 2.97118C0.159711 2.99009 0.204504 3.00006 0.250151 3Z" fill="#BDBDBD"/>
</svg>
